<?xml version="1.0" encoding="UTF-8" standalone="no"?>
<svg
   version="1.1"
   width="1367.2581"
   height="1102.2487"
   id="svg729"
   sodipodi:docname="column.svg"
   xml:space="preserve"
   xmlns:inkscape="http://www.inkscape.org/namespaces/inkscape"
   xmlns:sodipodi="http://sodipodi.sourceforge.net/DTD/sodipodi-0.dtd"
   xmlns="http://www.w3.org/2000/svg"
   xmlns:svg="http://www.w3.org/2000/svg"><defs
     id="defs729" /><sodipodi:namedview
     id="namedview729"
     pagecolor="#ffffff"
     bordercolor="#000000"
     borderopacity="0.25"
     inkscape:showpageshadow="2"
     inkscape:pageopacity="0.0"
     inkscape:pagecheckerboard="0"
     inkscape:deskcolor="#d1d1d1"><inkscape:page
       x="0"
       y="0"
       width="1367.2581"
       height="1102.2487"
       id="page2"
       margin="0"
       bleed="0" /></sodipodi:namedview><path
     style="fill:#000000"
     d="m 446.13972,1101.3005 c -84.71867,-7.1186 -119.58937,-62.5986 -130.46823,-207.57766 -2.64244,-35.2149 -3.25158,-42.5704 -5.11376,-61.75 -14.40318,-148.3455 -60.43482,-233.8157 -134.9943,-250.6534 -9.15046,-2.0664 -9.01822,-2.3815 5.57629,-13.2835 65.76621,-49.12715 156.01083,-16.2316 191.57239,69.831 l 4.29488,10.3941 3.31321,-10.2618 c 8.25907,-25.5803 25.51385,-50.9367 30.56678,-44.9188 41.58139,49.5228 58.29369,119.2972 53.62649,223.8924 -1.58352,35.488 1.4298,92.8296 3.40638,64.8212 3.11927,-44.2005 29.11833,-98.3215 63.47648,-132.1361 l 6.92451,-6.815 7.32308,7.815 c 37.73276,40.2672 48.26906,96.2221 29.43406,156.3149 -7.23378,23.0793 -12.32539,57.3629 -10.99008,74 0.97772,12.1817 1.69074,17 2.5157,17 0.42691,0 1.36854,-2.1375 2.09251,-4.75 2.70295,-9.7538 11.82807,-29.2751 24.42398,-52.25 13.68229,-24.9564 24.63171,-49.4667 27.47371,-61.5 9.84095,-41.6672 8.84762,-84.1969 -3.08301,-132 -7.64727,-30.6407 -21.28588,-60.67 -41.24105,-90.804 -9.0372,-13.6469 -12.65838,-18.864 -35.43588,-51.0534 -45.84942,-64.7946 -67.36298,-138.62438 -62.35933,-214.00318 1.21118,-18.24617 0.34238,-17.30224 14.56089,-15.82013 47.58179,4.95983 84.20441,30.00259 117.7459,80.51534 4.32212,6.50902 7.8584,11.63135 7.8584,11.38297 0,-0.24839 -2.95533,-9.17395 -6.5674,-19.83458 -21.8801,-64.57674 -25.75214,-81.11427 -25.84473,-110.38297 -0.19334,-61.12227 30.85137,-125.07356 88.34028,-181.97854 l 9.0706,-8.97854 8.5896,8.47854 c 74.5703,73.60666 102.8469,153.32306 82.4311,232.38669 -3.5463,13.73375 -10.168,34.51702 -18.5084,58.09185 -7.896,22.31879 -8.785,25.8172 -4.9552,19.5 34.6779,-57.20049 73.278,-84.08595 128.5713,-89.5516 8.2461,-0.81511 7.7232,-1.78082 9.0864,16.78051 3.347,45.56964 -4.9311,97.61338 -22.7642,143.11664 -3.6206,9.2383 -16.1321,35.7287 -17.312,36.6544 -0.3506,0.275 -1.4966,2.075 -2.5468,4 -2.3875,4.3761 -23.9187,36.0779 -33.7403,49.6779 -54.2834,75.1667 -73.8821,131.3024 -71.5254,204.867 1.4255,44.4959 5.967,58.5861 39.0219,121.0659 11.7761,22.2589 17.5057,34.9926 19.8007,44.0056 1.2435,4.88356 1.2435,4.88356 2.0485,1.3836 4.414,-19.1924 0.048,-59.9233 -9.7861,-91.2876 -19.0867,-60.876 -8.3521,-113.7033 31.9967,-157.4624 5.274,-5.7196 5.6955,-5.5881 15.4197,4.8115 34.8231,37.242 60.3564,93.2187 61.2888,134.3634 0.115,5.0751 0.115,5.0751 1.122,1.0751 0.6239,-2.478 1.058,-31.7761 1.141,-77 0.1178,-64.1829 0.3531,-74.6909 1.9484,-87 6.4109,-49.4643 20.495,-87.3997 45.5632,-122.7238 4.1857,-5.8982 8.1564,-10.7357 8.8239,-10.75 5.6703,-0.122 24.8554,33.4621 29.3798,51.4302 1.5095,5.9949 1.9022,5.7924 5.274,-2.7187 33.39183,-84.2865 119.83763,-119.18008 187.13273,-75.5355 14.0591,9.1181 19.6402,15.3614 14.4622,16.1783 -80.6715,12.7273 -128.963,110.5512 -141.4919,286.6195 -5.4509,76.6018 -11.4526,117.0399 -21.5875,145.45126 -19.8798,55.7294 -55.36533,83.7706 -112.19433,88.6576 -15.7711,1.3562 -15.4361,1.8063 -6.3721,-8.5613 37.1109,-42.4483 56.3887,-98.92826 77.1548,-226.04756 14.50543,-88.7941 28.52833,-138.7827 52.14493,-185.8851 8.5924,-17.1372 7.6283,-17.8459 -2.8046,-2.0615 -34.6196,52.3774 -50.76403,94.5822 -74.76303,195.4466 -31.2457,131.32126 -54.1568,180.03876 -103.0485,219.12026 -12.296,9.8287 -3.9727,8.8718 -77.2047,8.876 -64.7047,0 -64.7047,0 -65.2357,-3.2463 -0.292,-1.7875 -1.8924,-21.475 -3.5564,-43.75 -1.664,-22.275 -3.4588,-46.125 -3.9883,-53 -0.5296,-6.87496 -1.6499,-22.84996 -2.4897,-35.49996 -3.3419,-50.34 -4.5946,-68.8791 -6.0139,-89 -4.9081,-69.5786 -3.9528,-97.1735 5.0887,-147 12.1628,-67.0267 43.3502,-146.1625 80.1007,-203.24995 6.6426,-10.31835 5.5889,-10.47312 -3.4041,-0.5 -34.9935,38.80755 -60.8416,81.18985 -81.8761,134.24995 -2.9435,7.425 -5.3791,13.275 -5.4126,13 -0.3061,-2.5151 -3.2281,-66.1602 -3.9714,-86.5 -0.5225,-14.3 -1.1915,-31.85 -1.4866,-39 -0.2952,-7.15 -0.993,-25.59995 -1.5507,-40.99995 -0.5577,-15.4 -1.6861,-46.45 -2.5076,-69 -0.8214,-22.55 -1.9386,-54.725 -2.4826,-71.5 -2.4776,-76.40817 -3.1855,-81.11899 -4.8084,-32 -5.347,161.83565 -5.4947,165.92025 -10.2371,282.99995 -2.3797,58.7501 -2.2823,57.9054 -5.6505,49 -17.76782,-46.9774 -48.96254,-100.7158 -75.53695,-130.1256 -1.80185,-1.9941 -6.15857,-6.83662 -9.6816,-10.76115 -8.07072,-8.9905 -8.50835,-8.5484 -1.98536,2.0056 34.06388,55.11425 59.76866,116.09825 73.9118,175.35415 10.13801,42.4757 12.48971,63.8819 12.41681,113.027 -0.062,41.8929 -0.725,56.6877 -5.4883,122.5 -7.52772,104.00646 -8.89201,122.45306 -10.46397,141.48326 -0.81701,9.8908 -1.48548,18.7783 -1.48548,19.75 0,2.7168 -129.06943,2.7267 -133.06298,0.01 -45.43104,-30.9034 -74.54375,-80.9402 -96.43382,-165.74346 -2.55546,-9.9 -6.17358,-23.175 -8.04027,-29.5 -1.86668,-6.325 -7.20235,-27.025 -11.85703,-46 -23.25361,-94.7943 -42.3033,-141.4232 -77.33502,-189.297 -5.73056,-7.8312 -4.77221,-5.0621 5.14877,14.8774 10.78301,21.6719 11.89153,24.3122 19.06943,45.4196 13.80816,40.6045 19.44886,64.8523 30.59051,131.5 2.75835,16.5 5.86746,34.275 6.90914,39.5 1.04168,5.225 2.84928,14.675 4.01688,21 15.55279,84.25046 36.44566,137.08726 67.74439,171.32136 8.44628,9.2385 8.2843,9.3957 -8.25,8.0063 z M 789.67297,735.45004 c -0.372,-11.4374 30.5406,-64.4682 62.1512,-106.6207 32.4204,-43.2323 56.5747,-99.0132 65.757,-151.85645 7.1918,-41.38745 7.4282,-102.47878 0.5177,-133.75 -0.4926,-2.22909 -0.6606,-2.25 -18.0657,-2.25 h -17.5684 l 7.629,-14.57381 C 993.52687,128.80722 1207.6733,70.144541 1318.7546,208.97289 c 117.527,146.88391 -48.8181,360.23875 -202.1148,259.23335 -94.9946,-62.59079 -60.779,-217.50567 48,-217.32541 67.8366,0.1124 109.5783,78.82931 65.2431,123.03629 -41.3878,41.26809 -109.4754,-7.50053 -78.1461,-55.9731 4.5766,-7.08086 3.6336,-7.51241 -5.0769,-2.32354 -60.4111,35.98665 -0.7025,127.35339 68.9357,105.48631 103.3891,-32.4652 78.6373,-188.95011 -32.2782,-204.06773 -158.4387,-21.59496 -217.29223,205.79607 -74.4536,287.66521 l 8.724,5.00024 -10.724,1.17649 c -40.311,4.42236 -72.0731,19.7987 -101.4486,49.11224 l -13.72463,13.6956 -15.4231,-15.358 c -18.3537,-18.2762 -16.1268,-17.9227 -29.0209,-4.608 -42.7622,44.1573 -71.3421,108.9861 -76.2672,173 -0.7691,9.9969 0.076,10.0051 -9.7344,-0.094 -22.6379,-23.3044 -29.8507,-28.1432 -35.8046,-24.02 -9.199,6.3707 -25.5936,21.6473 -33.6589,31.3638 -1.1414,1.375 -2.0902,2.0398 -2.1085,1.4772 z m -292.3808,-3.1719 c -0.2919,-1.5429 -0.82583,-5.9553 -1.18651,-9.8053 -1.42532,-15.214 -7.76446,-46.557 -11.93278,-59 -16.14998,-48.2095 -37.31837,-84.2262 -66.3298,-112.8559 -9.99512,-9.8635 -8.64177,-10.2832 -27.27005,8.4559 -14.7891,14.8771 -14.7891,14.8771 -21.1112,8.2652 -34.00598,-35.56508 -64.35244,-51.17245 -109.70268,-56.4208 -10.38058,-1.20134 -10.38058,-1.20134 -2.48808,-5.32285 91.66851,-47.86981 112.48975,-178.55087 39.84213,-250.06257 -71.60641,-70.48677 -185.82794,-43.13217 -208.533275,49.94107 -18.82581,77.17034 57.934715,144.78647 123.547445,108.82937 41.56562,-22.77881 44.4677,-84.27943 4.75984,-100.87043 -5.24426,-2.1912 -5.62783,-1.81849 -2.35777,2.29106 36.96121,46.44976 -34.948,100.52662 -77.11232,57.98968 -53.283705,-53.75462 18.49962,-144.61516 93.9597,-118.93052 137.8006,46.90372 73.06987,253.74406 -74.2371,237.21694 C 20.264455,476.64225 -39.443705,309.55115 53.857925,202.96865 167.71793,72.901411 376.45334,132.31584 475.45811,322.97289 c 3.57007,6.875 7.32554,13.70026 8.3455,15.16725 1.85446,2.66726 1.85446,2.66726 -15.60673,3 -20.81573,0.39667 -18.98221,-1.0716 -21.02009,16.83275 -9.05733,79.57554 1.44214,146.39944 33.38833,212.49995 13.57146,28.081 17.38452,34.1132 52.14969,82.5 21.0731,29.33 31.32404,47.0097 41.31165,71.25 4.47351,10.8574 4.32979,13.9906 -0.32806,7.1521 -5.32777,-7.822 -32.08115,-30.4021 -36.02114,-30.4021 -2.91915,0 -13.49166,8.4754 -27.19595,21.8015 -12.32287,11.9827 -12.67248,12.2347 -13.18914,9.5038 z M 543.0395,353.12519 c -4.45513,-2.00877 -10.33253,-4.42809 -13.06089,-5.37626 -4.96067,-1.72396 -4.96067,-1.72396 -12.7215,-17.5 -43.89735,-89.23352 -101.95165,-154.06454 -174.11739,-194.44225 -5,-2.79756 -5,-2.79756 150.40301,-2.81568 148.0607,-0.0173 155.31309,0.0646 153.49964,1.73189 -55.73125,51.24048 -94.47148,134.23843 -94.75253,203 -0.0433,10.5875 -0.31976,19.20603 -0.6144,19.1523 -0.29464,-0.0537 -4.18082,-1.74123 -8.63594,-3.75 z m 272.05857,-15.40343 c -0.1305,-60.27905 -25.7727,-123.89499 -71.4273,-177.20423 -5.4768,-6.39501 -21.579,-24.1417 -23.4044,-25.79464 -1.8415,-1.66745 5.3982,-1.74965 153.4703,-1.74257 155.40313,0.007 155.40313,0.007 147.40313,4.57453 -4.4,2.5119 -8.7105,5.20855 -9.5788,5.99256 -0.8683,0.78401 -1.9055,1.42548 -2.3049,1.42548 -0.3993,0 -3.5139,1.8799 -6.9212,4.17756 -54.16073,36.52218 -98.82963,85.25257 -133.21043,145.32244 -7.8509,13.71697 -25.4765,48.41788 -25.4814,50.16729 0,0.64201 -2.1408,1.94888 -4.7533,2.90416 -9.3929,3.43455 -19.7683,7.73078 -20.7,8.57144 -2.6949,2.43138 -3.0512,0.31167 -3.0917,-18.39402 z M 80.726325,118.03565 C 70.449005,88.216181 59.467715,74.007391 37.094175,61.579651 17.213095,50.536381 3.6652449,30.716411 1.1350649,8.9728911 c -0.352,-3.025 -0.8608,-6.28127 -1.13066,-7.23614 C -0.4610451,0.08978106 34.653295,5.8106445e-4 683.69027,1.1064453e-5 1367.8669,-5.8893555e-4 1367.8669,-5.8893555e-4 1367.2202,5.7361511 c -2.6401,23.4186599 -13.7484,41.3569999 -33.3856,53.9129699 -15.7626,10.07855 -18.6472,12.17427 -24.1231,17.52589 -11.0238,10.77367 -19.5937,27.669619 -26.6711,52.583459 -0.2538,0.89356 -2.5907,0.0641 -7.6635,-2.71995 -22.1687,-12.16692 -56.549,-22.99033 -84.3057,-26.54062 -14.9403,-1.910989 -991.3721,-2.436639 -1008.49934,-0.542919 -30.15799,3.334499 -59.49339,11.911749 -86.978215,25.431169 l -10.54609,5.18748 z"
     id="path729" /></svg>
